<?xml version="1.0" encoding="UTF-8" standalone="no"?>
<!DOCTYPE svg PUBLIC "-//W3C//DTD SVG 1.1//EN"
 "http://www.w3.org/Graphics/SVG/1.1/DTD/svg11.dtd">
<!-- Generated by graphviz version 2.44.0 (20200518.1210)
 -->
<!-- Title: G Pages: 1 -->
<svg width="2851pt" height="188pt"
 viewBox="0.00 0.00 2851.23 188.00" xmlns="http://www.w3.org/2000/svg" xmlns:xlink="http://www.w3.org/1999/xlink">
<g id="graph0" class="graph" transform="scale(1 1) rotate(0) translate(4 184)">
<title>G</title>
<polygon fill="white" stroke="transparent" points="-4,4 -4,-184 2847.23,-184 2847.23,4 -4,4"/>
<!-- use&#45;subscription -->
<g id="node1" class="node">
<title>use&#45;subscription</title>
<ellipse fill="none" stroke="black" cx="101.12" cy="-162" rx="74.16" ry="18"/>
<text text-anchor="middle" x="101.12" y="-157.8" font-family="Times,serif" font-size="14.00">use&#45;subscription</text>
</g>
<!-- use&#45;sync&#45;external&#45;store -->
<g id="node2" class="node">
<title>use&#45;sync&#45;external&#45;store</title>
<ellipse fill="none" stroke="black" cx="101.12" cy="-90" rx="101.24" ry="18"/>
<text text-anchor="middle" x="101.12" y="-85.8" font-family="Times,serif" font-size="14.00">use&#45;sync&#45;external&#45;store</text>
</g>
<!-- use&#45;subscription&#45;&gt;use&#45;sync&#45;external&#45;store -->
<g id="edge1" class="edge">
<title>use&#45;subscription&#45;&gt;use&#45;sync&#45;external&#45;store</title>
<path fill="none" stroke="black" d="M101.12,-143.7C101.12,-135.98 101.12,-126.71 101.12,-118.11"/>
<polygon fill="black" stroke="black" points="104.62,-118.1 101.12,-108.1 97.62,-118.1 104.62,-118.1"/>
</g>
<!-- react&#45;test&#45;renderer -->
<g id="node3" class="node">
<title>react&#45;test&#45;renderer</title>
<ellipse fill="none" stroke="black" cx="302.12" cy="-90" rx="81.59" ry="18"/>
<text text-anchor="middle" x="302.12" y="-85.8" font-family="Times,serif" font-size="14.00">react&#45;test&#45;renderer</text>
</g>
<!-- react&#45;is -->
<g id="node4" class="node">
<title>react&#45;is</title>
<ellipse fill="none" stroke="black" cx="302.12" cy="-18" rx="39.4" ry="18"/>
<text text-anchor="middle" x="302.12" y="-13.8" font-family="Times,serif" font-size="14.00">react&#45;is</text>
</g>
<!-- react&#45;test&#45;renderer&#45;&gt;react&#45;is -->
<g id="edge2" class="edge">
<title>react&#45;test&#45;renderer&#45;&gt;react&#45;is</title>
<path fill="none" stroke="black" d="M302.12,-71.7C302.12,-63.98 302.12,-54.71 302.12,-46.11"/>
<polygon fill="black" stroke="black" points="305.62,-46.1 302.12,-36.1 298.62,-46.1 305.62,-46.1"/>
</g>
<!-- scheduler -->
<g id="node5" class="node">
<title>scheduler</title>
<ellipse fill="none" stroke="black" cx="911.12" cy="-18" rx="48.07" ry="18"/>
<text text-anchor="middle" x="911.12" y="-13.8" font-family="Times,serif" font-size="14.00">scheduler</text>
</g>
<!-- react&#45;test&#45;renderer&#45;&gt;scheduler -->
<g id="edge3" class="edge">
<title>react&#45;test&#45;renderer&#45;&gt;scheduler</title>
<path fill="none" stroke="black" d="M360.74,-77.31C371.49,-75.38 382.62,-73.52 393.12,-72 560.16,-47.89 759.06,-30.76 854.51,-23.25"/>
<polygon fill="black" stroke="black" points="854.83,-26.74 864.53,-22.47 854.29,-19.76 854.83,-26.74"/>
</g>
<!-- react&#45;server&#45;dom&#45;fb -->
<g id="node6" class="node">
<title>react&#45;server&#45;dom&#45;fb</title>
<ellipse fill="none" stroke="black" cx="490.12" cy="-90" rx="88.48" ry="18"/>
<text text-anchor="middle" x="490.12" y="-85.8" font-family="Times,serif" font-size="14.00">react&#45;server&#45;dom&#45;fb</text>
</g>
<!-- react&#45;server&#45;dom&#45;fb&#45;&gt;scheduler -->
<g id="edge4" class="edge">
<title>react&#45;server&#45;dom&#45;fb&#45;&gt;scheduler</title>
<path fill="none" stroke="black" d="M554.54,-77.6C565.41,-75.71 576.58,-73.78 587.12,-72 682.47,-55.85 793.75,-37.82 857.97,-27.51"/>
<polygon fill="black" stroke="black" points="858.54,-30.96 867.86,-25.92 857.43,-24.05 858.54,-30.96"/>
</g>
<!-- react&#45;reconciler -->
<g id="node7" class="node">
<title>react&#45;reconciler</title>
<ellipse fill="none" stroke="black" cx="1002.12" cy="-90" rx="71.72" ry="18"/>
<text text-anchor="middle" x="1002.12" y="-85.8" font-family="Times,serif" font-size="14.00">react&#45;reconciler</text>
</g>
<!-- react&#45;reconciler&#45;&gt;scheduler -->
<g id="edge5" class="edge">
<title>react&#45;reconciler&#45;&gt;scheduler</title>
<path fill="none" stroke="black" d="M981.01,-72.76C968.58,-63.2 952.69,-50.98 939.21,-40.61"/>
<polygon fill="black" stroke="black" points="941.23,-37.75 931.17,-34.43 936.97,-43.3 941.23,-37.75"/>
</g>
<!-- react&#45;noop&#45;renderer -->
<g id="node8" class="node">
<title>react&#45;noop&#45;renderer</title>
<ellipse fill="none" stroke="black" cx="827.12" cy="-162" rx="87.9" ry="18"/>
<text text-anchor="middle" x="827.12" y="-157.8" font-family="Times,serif" font-size="14.00">react&#45;noop&#45;renderer</text>
</g>
<!-- react&#45;noop&#45;renderer&#45;&gt;react&#45;reconciler -->
<g id="edge6" class="edge">
<title>react&#45;noop&#45;renderer&#45;&gt;react&#45;reconciler</title>
<path fill="none" stroke="black" d="M865.52,-145.64C892.16,-134.98 927.78,-120.73 955.97,-109.46"/>
<polygon fill="black" stroke="black" points="957.62,-112.57 965.6,-105.61 955.02,-106.07 957.62,-112.57"/>
</g>
<!-- react&#45;client -->
<g id="node9" class="node">
<title>react&#45;client</title>
<ellipse fill="none" stroke="black" cx="1251.12" cy="-90" rx="54.43" ry="18"/>
<text text-anchor="middle" x="1251.12" y="-85.8" font-family="Times,serif" font-size="14.00">react&#45;client</text>
</g>
<!-- react&#45;noop&#45;renderer&#45;&gt;react&#45;client -->
<g id="edge7" class="edge">
<title>react&#45;noop&#45;renderer&#45;&gt;react&#45;client</title>
<path fill="none" stroke="black" d="M890.46,-149.55C901.66,-147.62 913.22,-145.7 924.12,-144 1040.69,-125.81 1071.44,-131.19 1187.12,-108 1191.8,-107.06 1196.66,-105.98 1201.49,-104.82"/>
<polygon fill="black" stroke="black" points="1202.49,-108.18 1211.35,-102.38 1200.81,-101.39 1202.49,-108.18"/>
</g>
<!-- react&#45;server -->
<g id="node10" class="node">
<title>react&#45;server</title>
<ellipse fill="none" stroke="black" cx="653.12" cy="-90" rx="56.69" ry="18"/>
<text text-anchor="middle" x="653.12" y="-85.8" font-family="Times,serif" font-size="14.00">react&#45;server</text>
</g>
<!-- react&#45;noop&#45;renderer&#45;&gt;react&#45;server -->
<g id="edge8" class="edge">
<title>react&#45;noop&#45;renderer&#45;&gt;react&#45;server</title>
<path fill="none" stroke="black" d="M788.93,-145.64C761.52,-134.61 724.55,-119.74 696.1,-108.29"/>
<polygon fill="black" stroke="black" points="697.39,-105.04 686.81,-104.55 694.78,-111.53 697.39,-105.04"/>
</g>
<!-- react&#45;native&#45;renderer -->
<g id="node11" class="node">
<title>react&#45;native&#45;renderer</title>
<ellipse fill="none" stroke="black" cx="820.12" cy="-90" rx="91.97" ry="18"/>
<text text-anchor="middle" x="820.12" y="-85.8" font-family="Times,serif" font-size="14.00">react&#45;native&#45;renderer</text>
</g>
<!-- react&#45;native&#45;renderer&#45;&gt;scheduler -->
<g id="edge9" class="edge">
<title>react&#45;native&#45;renderer&#45;&gt;scheduler</title>
<path fill="none" stroke="black" d="M841.69,-72.41C854.05,-62.9 869.7,-50.86 883.02,-40.62"/>
<polygon fill="black" stroke="black" points="885.16,-43.38 890.96,-34.51 880.9,-37.83 885.16,-43.38"/>
</g>
<!-- react&#45;dom -->
<g id="node12" class="node">
<title>react&#45;dom</title>
<ellipse fill="none" stroke="black" cx="1692.12" cy="-90" rx="50.36" ry="18"/>
<text text-anchor="middle" x="1692.12" y="-85.8" font-family="Times,serif" font-size="14.00">react&#45;dom</text>
</g>
<!-- react&#45;dom&#45;&gt;scheduler -->
<g id="edge10" class="edge">
<title>react&#45;dom&#45;&gt;scheduler</title>
<path fill="none" stroke="black" d="M1644.15,-84.7C1507.22,-72.43 1114.95,-37.27 967.8,-24.08"/>
<polygon fill="black" stroke="black" points="967.9,-20.58 957.63,-23.17 967.28,-27.55 967.9,-20.58"/>
</g>
<!-- react&#45;devtools -->
<g id="node13" class="node">
<title>react&#45;devtools</title>
<ellipse fill="none" stroke="black" cx="2523.12" cy="-162" rx="65.97" ry="18"/>
<text text-anchor="middle" x="2523.12" y="-157.8" font-family="Times,serif" font-size="14.00">react&#45;devtools</text>
</g>
<!-- react&#45;devtools&#45;core -->
<g id="node14" class="node">
<title>react&#45;devtools&#45;core</title>
<ellipse fill="none" stroke="black" cx="2523.12" cy="-90" rx="85.63" ry="18"/>
<text text-anchor="middle" x="2523.12" y="-85.8" font-family="Times,serif" font-size="14.00">react&#45;devtools&#45;core</text>
</g>
<!-- react&#45;devtools&#45;&gt;react&#45;devtools&#45;core -->
<g id="edge11" class="edge">
<title>react&#45;devtools&#45;&gt;react&#45;devtools&#45;core</title>
<path fill="none" stroke="black" d="M2523.12,-143.7C2523.12,-135.98 2523.12,-126.71 2523.12,-118.11"/>
<polygon fill="black" stroke="black" points="2526.62,-118.1 2523.12,-108.1 2519.62,-118.1 2526.62,-118.1"/>
</g>
<!-- react&#45;art -->
<g id="node15" class="node">
<title>react&#45;art</title>
<ellipse fill="none" stroke="black" cx="1135.12" cy="-90" rx="43.39" ry="18"/>
<text text-anchor="middle" x="1135.12" y="-85.8" font-family="Times,serif" font-size="14.00">react&#45;art</text>
</g>
<!-- react&#45;art&#45;&gt;scheduler -->
<g id="edge12" class="edge">
<title>react&#45;art&#45;&gt;scheduler</title>
<path fill="none" stroke="black" d="M1102.41,-78.21C1096.02,-76.13 1089.37,-73.98 1083.12,-72 1040.56,-58.49 991.93,-43.55 957.25,-32.98"/>
<polygon fill="black" stroke="black" points="958,-29.55 947.42,-29.99 955.96,-36.25 958,-29.55"/>
</g>
<!-- react&#45;fixtures&#45;ssr -->
<g id="node16" class="node">
<title>react&#45;fixtures&#45;ssr</title>
<ellipse fill="none" stroke="black" cx="1851.12" cy="-162" rx="76.39" ry="18"/>
<text text-anchor="middle" x="1851.12" y="-157.8" font-family="Times,serif" font-size="14.00">react&#45;fixtures&#45;ssr</text>
</g>
<!-- react&#45;fixtures&#45;ssr&#45;&gt;react&#45;dom -->
<g id="edge14" class="edge">
<title>react&#45;fixtures&#45;ssr&#45;&gt;react&#45;dom</title>
<path fill="none" stroke="black" d="M1816.62,-145.81C1791.65,-134.82 1757.84,-119.93 1731.76,-108.45"/>
<polygon fill="black" stroke="black" points="1733.09,-105.21 1722.53,-104.39 1730.27,-111.62 1733.09,-105.21"/>
</g>
<!-- react -->
<g id="node17" class="node">
<title>react</title>
<ellipse fill="none" stroke="black" cx="1851.12" cy="-90" rx="29.59" ry="18"/>
<text text-anchor="middle" x="1851.12" y="-85.8" font-family="Times,serif" font-size="14.00">react</text>
</g>
<!-- react&#45;fixtures&#45;ssr&#45;&gt;react -->
<g id="edge13" class="edge">
<title>react&#45;fixtures&#45;ssr&#45;&gt;react</title>
<path fill="none" stroke="black" d="M1851.12,-143.7C1851.12,-135.98 1851.12,-126.71 1851.12,-118.11"/>
<polygon fill="black" stroke="black" points="1854.62,-118.1 1851.12,-108.1 1847.62,-118.1 1854.62,-118.1"/>
</g>
<!-- react&#45;ssr -->
<g id="node18" class="node">
<title>react&#45;ssr</title>
<ellipse fill="none" stroke="black" cx="1989.12" cy="-162" rx="43.97" ry="18"/>
<text text-anchor="middle" x="1989.12" y="-157.8" font-family="Times,serif" font-size="14.00">react&#45;ssr</text>
</g>
<!-- react&#45;ssr&#45;&gt;react&#45;dom -->
<g id="edge16" class="edge">
<title>react&#45;ssr&#45;&gt;react&#45;dom</title>
<path fill="none" stroke="black" d="M1956.47,-149.98C1949.77,-147.88 1942.75,-145.78 1936.12,-144 1871.1,-126.55 1795.17,-110.77 1745.5,-101.05"/>
<polygon fill="black" stroke="black" points="1746.1,-97.6 1735.62,-99.13 1744.77,-104.48 1746.1,-97.6"/>
</g>
<!-- react&#45;ssr&#45;&gt;react -->
<g id="edge15" class="edge">
<title>react&#45;ssr&#45;&gt;react</title>
<path fill="none" stroke="black" d="M1962.51,-147.5C1939.69,-135.93 1906.78,-119.23 1882.64,-106.99"/>
<polygon fill="black" stroke="black" points="1884.04,-103.78 1873.54,-102.37 1880.88,-110.02 1884.04,-103.78"/>
</g>
<!-- flight -->
<g id="node19" class="node">
<title>flight</title>
<ellipse fill="none" stroke="black" cx="2360.12" cy="-162" rx="31.92" ry="18"/>
<text text-anchor="middle" x="2360.12" y="-157.8" font-family="Times,serif" font-size="14.00">flight</text>
</g>
<!-- flight&#45;&gt;react&#45;dom -->
<g id="edge18" class="edge">
<title>flight&#45;&gt;react&#45;dom</title>
<path fill="none" stroke="black" d="M2336.87,-149.6C2331.49,-147.39 2325.69,-145.34 2320.12,-144 2100.07,-91.01 2037.2,-131.89 1812.12,-108 1790.82,-105.74 1767.48,-102.59 1747.1,-99.61"/>
<polygon fill="black" stroke="black" points="1747.45,-96.13 1737.04,-98.12 1746.42,-103.05 1747.45,-96.13"/>
</g>
<!-- flight&#45;&gt;react -->
<g id="edge17" class="edge">
<title>flight&#45;&gt;react</title>
<path fill="none" stroke="black" d="M2336.4,-149.59C2331.14,-147.44 2325.52,-145.42 2320.12,-144 2165.06,-103.21 1973.03,-93.81 1891.14,-91.65"/>
<polygon fill="black" stroke="black" points="1891.11,-88.15 1881.02,-91.4 1890.94,-95.14 1891.11,-88.15"/>
</g>
<!-- react&#45;refresh -->
<g id="node20" class="node">
<title>react&#45;refresh</title>
<ellipse fill="none" stroke="black" cx="2360.12" cy="-90" rx="59.62" ry="18"/>
<text text-anchor="middle" x="2360.12" y="-85.8" font-family="Times,serif" font-size="14.00">react&#45;refresh</text>
</g>
<!-- flight&#45;&gt;react&#45;refresh -->
<g id="edge19" class="edge">
<title>flight&#45;&gt;react&#45;refresh</title>
<path fill="none" stroke="black" d="M2360.12,-143.7C2360.12,-135.98 2360.12,-126.71 2360.12,-118.11"/>
<polygon fill="black" stroke="black" points="2363.62,-118.1 2360.12,-108.1 2356.62,-118.1 2363.62,-118.1"/>
</g>
<!-- expiration&#45;2 -->
<g id="node21" class="node">
<title>expiration&#45;2</title>
<ellipse fill="none" stroke="black" cx="2109.12" cy="-162" rx="58.47" ry="18"/>
<text text-anchor="middle" x="2109.12" y="-157.8" font-family="Times,serif" font-size="14.00">expiration&#45;2</text>
</g>
<!-- expiration&#45;2&#45;&gt;react&#45;dom -->
<g id="edge21" class="edge">
<title>expiration&#45;2&#45;&gt;react&#45;dom</title>
<path fill="none" stroke="black" d="M2066.73,-149.58C2058.59,-147.57 2050.12,-145.62 2042.12,-144 2013.85,-138.29 1838.86,-112.46 1747.51,-99.08"/>
<polygon fill="black" stroke="black" points="1748,-95.62 1737.6,-97.63 1746.99,-102.54 1748,-95.62"/>
</g>
<!-- expiration&#45;2&#45;&gt;react -->
<g id="edge20" class="edge">
<title>expiration&#45;2&#45;&gt;react</title>
<path fill="none" stroke="black" d="M2066.8,-149.52C2016.86,-135.97 1934.65,-113.66 1887.46,-100.86"/>
<polygon fill="black" stroke="black" points="1888.24,-97.44 1877.67,-98.2 1886.4,-104.2 1888.24,-97.44"/>
</g>
<!-- eslint&#45;playground -->
<g id="node22" class="node">
<title>eslint&#45;playground</title>
<ellipse fill="none" stroke="black" cx="2735.12" cy="-162" rx="79.32" ry="18"/>
<text text-anchor="middle" x="2735.12" y="-157.8" font-family="Times,serif" font-size="14.00">eslint&#45;playground</text>
</g>
<!-- eslint&#45;plugin&#45;react&#45;hooks -->
<g id="node23" class="node">
<title>eslint&#45;plugin&#45;react&#45;hooks</title>
<ellipse fill="none" stroke="black" cx="2735.12" cy="-90" rx="108.22" ry="18"/>
<text text-anchor="middle" x="2735.12" y="-85.8" font-family="Times,serif" font-size="14.00">eslint&#45;plugin&#45;react&#45;hooks</text>
</g>
<!-- eslint&#45;playground&#45;&gt;eslint&#45;plugin&#45;react&#45;hooks -->
<g id="edge22" class="edge">
<title>eslint&#45;playground&#45;&gt;eslint&#45;plugin&#45;react&#45;hooks</title>
<path fill="none" stroke="black" d="M2735.12,-143.7C2735.12,-135.98 2735.12,-126.71 2735.12,-118.11"/>
<polygon fill="black" stroke="black" points="2738.62,-118.1 2735.12,-108.1 2731.62,-118.1 2738.62,-118.1"/>
</g>
<!-- react&#45;fixtures -->
<g id="node24" class="node">
<title>react&#45;fixtures</title>
<ellipse fill="none" stroke="black" cx="2248.12" cy="-162" rx="62.51" ry="18"/>
<text text-anchor="middle" x="2248.12" y="-157.8" font-family="Times,serif" font-size="14.00">react&#45;fixtures</text>
</g>
<!-- react&#45;fixtures&#45;&gt;react&#45;dom -->
<g id="edge24" class="edge">
<title>react&#45;fixtures&#45;&gt;react&#45;dom</title>
<path fill="none" stroke="black" d="M2202.98,-149.37C2194.12,-147.36 2184.86,-145.46 2176.12,-144 2015.77,-117.26 1973.52,-127.41 1812.12,-108 1790.94,-105.45 1767.72,-102.26 1747.39,-99.33"/>
<polygon fill="black" stroke="black" points="1747.76,-95.84 1737.36,-97.87 1746.75,-102.77 1747.76,-95.84"/>
</g>
<!-- react&#45;fixtures&#45;&gt;react -->
<g id="edge23" class="edge">
<title>react&#45;fixtures&#45;&gt;react</title>
<path fill="none" stroke="black" d="M2202.13,-149.63C2193.51,-147.65 2184.56,-145.68 2176.12,-144 2073.3,-123.5 1951.01,-105.17 1889.91,-96.43"/>
<polygon fill="black" stroke="black" points="1890.33,-92.95 1879.93,-95.01 1889.34,-99.88 1890.33,-92.95"/>
</g>
<!-- attribute&#45;behavior -->
<g id="node25" class="node">
<title>attribute&#45;behavior</title>
<ellipse fill="none" stroke="black" cx="1013.12" cy="-162" rx="80.43" ry="18"/>
<text text-anchor="middle" x="1013.12" y="-157.8" font-family="Times,serif" font-size="14.00">attribute&#45;behavior</text>
</g>
<!-- attribute&#45;behavior&#45;&gt;react&#45;dom -->
<g id="edge26" class="edge">
<title>attribute&#45;behavior&#45;&gt;react&#45;dom</title>
<path fill="none" stroke="black" d="M1069.95,-149.27C1080.61,-147.32 1091.68,-145.46 1102.12,-144 1295.31,-116.94 1526.13,-100.88 1632.75,-94.38"/>
<polygon fill="black" stroke="black" points="1633.21,-97.86 1642.98,-93.76 1632.79,-90.87 1633.21,-97.86"/>
</g>
<!-- attribute&#45;behavior&#45;&gt;react -->
<g id="edge25" class="edge">
<title>attribute&#45;behavior&#45;&gt;react</title>
<path fill="none" stroke="black" d="M1069.44,-149.07C1080.25,-147.11 1091.5,-145.3 1102.12,-144 1388.86,-108.82 1464.04,-140.26 1751.12,-108 1771.79,-105.68 1794.68,-101.88 1813.33,-98.46"/>
<polygon fill="black" stroke="black" points="1814.03,-101.89 1823.22,-96.61 1812.75,-95.01 1814.03,-101.89"/>
</g>
<!-- cpu&#45;demo -->
<g id="node26" class="node">
<title>cpu&#45;demo</title>
<ellipse fill="none" stroke="black" cx="1161.12" cy="-162" rx="49.8" ry="18"/>
<text text-anchor="middle" x="1161.12" y="-157.8" font-family="Times,serif" font-size="14.00">cpu&#45;demo</text>
</g>
<!-- cpu&#45;demo&#45;&gt;react&#45;dom -->
<g id="edge28" class="edge">
<title>cpu&#45;demo&#45;&gt;react&#45;dom</title>
<path fill="none" stroke="black" d="M1197.08,-149.41C1204.32,-147.37 1211.92,-145.45 1219.12,-144 1366.35,-114.41 1542.93,-100.12 1632.98,-94.32"/>
<polygon fill="black" stroke="black" points="1633.24,-97.81 1643,-93.69 1632.8,-90.83 1633.24,-97.81"/>
</g>
<!-- cpu&#45;demo&#45;&gt;react -->
<g id="edge27" class="edge">
<title>cpu&#45;demo&#45;&gt;react</title>
<path fill="none" stroke="black" d="M1196.41,-149.33C1203.84,-147.25 1211.68,-145.33 1219.12,-144 1452.43,-102.43 1515.78,-135.89 1751.12,-108 1771.78,-105.55 1794.66,-101.74 1813.32,-98.35"/>
<polygon fill="black" stroke="black" points="1814.01,-101.78 1823.21,-96.52 1812.74,-94.9 1814.01,-101.78"/>
</g>
<!-- react&#45;nesting&#45;example&#45;modern -->
<g id="node27" class="node">
<title>react&#45;nesting&#45;example&#45;modern</title>
<ellipse fill="none" stroke="black" cx="1358.12" cy="-162" rx="129.59" ry="18"/>
<text text-anchor="middle" x="1358.12" y="-157.8" font-family="Times,serif" font-size="14.00">react&#45;nesting&#45;example&#45;modern</text>
</g>
<!-- react&#45;nesting&#45;example&#45;modern&#45;&gt;react&#45;dom -->
<g id="edge30" class="edge">
<title>react&#45;nesting&#45;example&#45;modern&#45;&gt;react&#45;dom</title>
<path fill="none" stroke="black" d="M1426.52,-146.67C1489.71,-133.42 1582.25,-114.03 1639.75,-101.97"/>
<polygon fill="black" stroke="black" points="1640.65,-105.36 1649.72,-99.89 1639.21,-98.51 1640.65,-105.36"/>
</g>
<!-- react&#45;nesting&#45;example&#45;modern&#45;&gt;react -->
<g id="edge29" class="edge">
<title>react&#45;nesting&#45;example&#45;modern&#45;&gt;react</title>
<path fill="none" stroke="black" d="M1451.15,-149.37C1530.87,-139.18 1648.69,-123.61 1751.12,-108 1771.54,-104.89 1794.24,-101.06 1812.84,-97.82"/>
<polygon fill="black" stroke="black" points="1813.47,-101.27 1822.71,-96.1 1812.26,-94.37 1813.47,-101.27"/>
</g>
<!-- react&#45;nesting&#45;example&#45;legacy -->
<g id="node28" class="node">
<title>react&#45;nesting&#45;example&#45;legacy</title>
<ellipse fill="none" stroke="black" cx="1631.12" cy="-162" rx="125.5" ry="18"/>
<text text-anchor="middle" x="1631.12" y="-157.8" font-family="Times,serif" font-size="14.00">react&#45;nesting&#45;example&#45;legacy</text>
</g>
<!-- react&#45;nesting&#45;example&#45;legacy&#45;&gt;react&#45;dom -->
<g id="edge32" class="edge">
<title>react&#45;nesting&#45;example&#45;legacy&#45;&gt;react&#45;dom</title>
<path fill="none" stroke="black" d="M1645.89,-144.05C1653.49,-135.33 1662.89,-124.54 1671.22,-114.98"/>
<polygon fill="black" stroke="black" points="1673.98,-117.15 1677.91,-107.31 1668.7,-112.55 1673.98,-117.15"/>
</g>
<!-- react&#45;nesting&#45;example&#45;legacy&#45;&gt;react -->
<g id="edge31" class="edge">
<title>react&#45;nesting&#45;example&#45;legacy&#45;&gt;react</title>
<path fill="none" stroke="black" d="M1680.22,-145.38C1721.31,-132.3 1778.96,-113.96 1815.68,-102.28"/>
<polygon fill="black" stroke="black" points="1816.98,-105.54 1825.45,-99.17 1814.86,-98.87 1816.98,-105.54"/>
</g>
</g>
</svg>
